<!DOCTYPE svg PUBLIC "-//W3C//DTD SVG 20010904//EN" "http://www.w3.org/TR/2001/REC-SVG-20010904/DTD/svg10.dtd">
<svg version="1.0" xmlns="http://www.w3.org/2000/svg" width="450px" height="640px" viewBox="0 0 4500 6400" preserveAspectRatio="xMidYMid meet">
<g id="layer1" fill="#ffffff" stroke="none">
 <path d="M0 5845 l0 -555 1568 0 c1398 0 1574 -2 1621 -16 73 -21 144 -88 171 -160 20 -54 20 -70 20 -1913 0 -2107 8 -1925 -83 -2015 -92 -91 -30 -86 -1041 -86 -952 0 -937 -1 -1016 53 -46 30 -97 98 -112 150 -10 33 -13 237 -13 922 l0 880 26 56 c31 66 83 119 147 151 l47 23 705 5 705 5 0 550 0 550 -1000 0 -1000 0 -90 -23 c-284 -71 -535 -302 -618 -567 -34 -109 -37 -240 -37 -1648 1 -1528 2 -1552 57 -1682 92 -220 307 -418 528 -488 109 -34 238 -37 1678 -37 1550 1 1578 2 1710 55 195 79 381 259 469 452 60 134 58 10 58 2688 0 2678 2 2554 -58 2688 -101 221 -309 411 -527 480 -111 35 -231 37 -2085 37 l-1830 0 0 -555z"/>
 </g>

</svg>